<svg width="321" height="75" viewBox="0 0 321 75" fill="none" xmlns="http://www.w3.org/2000/svg">
<circle cx="224" cy="57.0389" r="12.5" fill="#D0FF52"/>
<path d="M258.509 49.0844V66.5389H254.818V52.5872H254.716L250.719 55.0929V51.8202L255.04 49.0844H258.509ZM269.022 49.0844H272.61V54.7094C272.61 55.3798 272.726 55.9196 272.959 56.3287C273.192 56.7321 273.553 57.0247 274.041 57.2066C274.536 57.3827 275.169 57.4708 275.942 57.4708C276.215 57.4708 276.536 57.4622 276.905 57.4452C277.274 57.4225 277.655 57.3912 278.047 57.3514C278.445 57.3117 278.82 57.2634 279.172 57.2066C279.524 57.1497 279.817 57.0844 280.05 57.0105V59.9253C279.811 60.0048 279.513 60.0759 279.155 60.1384C278.803 60.1952 278.431 60.2463 278.039 60.2918C277.647 60.3316 277.266 60.3628 276.897 60.3855C276.527 60.4083 276.209 60.4196 275.942 60.4196C274.539 60.4196 273.317 60.2208 272.277 59.823C271.237 59.4196 270.433 58.7975 269.865 57.9566C269.303 57.1156 269.022 56.0333 269.022 54.7094V49.0844ZM279.411 49.0844H283.016V66.5389H279.411V49.0844ZM289.674 66.5389H285.72L291.745 49.0844H296.501L302.518 66.5389H298.563L294.191 53.073H294.055L289.674 66.5389ZM289.427 59.6781H298.768V62.5588H289.427V59.6781ZM319.199 55.1952H315.466C315.398 54.7122 315.259 54.2833 315.049 53.9083C314.838 53.5276 314.568 53.2037 314.239 52.9367C313.909 52.6696 313.529 52.4651 313.097 52.323C312.671 52.181 312.208 52.11 311.708 52.11C310.804 52.11 310.017 52.3344 309.347 52.7833C308.676 53.2264 308.156 53.8742 307.787 54.7264C307.418 55.573 307.233 56.6014 307.233 57.8117C307.233 59.056 307.418 60.1014 307.787 60.948C308.162 61.7946 308.685 62.4338 309.355 62.8656C310.026 63.2975 310.801 63.5134 311.682 63.5134C312.176 63.5134 312.634 63.448 313.054 63.3173C313.48 63.1867 313.858 62.9963 314.188 62.7463C314.517 62.4906 314.79 62.181 315.006 61.8173C315.228 61.4537 315.381 61.0389 315.466 60.573L319.199 60.5901C319.103 61.3912 318.861 62.1639 318.475 62.9083C318.094 63.6469 317.58 64.3088 316.932 64.8941C316.29 65.4736 315.523 65.9338 314.631 66.2747C313.745 66.61 312.742 66.7776 311.622 66.7776C310.066 66.7776 308.674 66.4253 307.446 65.7208C306.225 65.0162 305.259 63.9963 304.549 62.6611C303.844 61.3259 303.492 59.7094 303.492 57.8117C303.492 55.9083 303.85 54.2889 304.566 52.9537C305.281 51.6185 306.253 50.6014 307.48 49.9026C308.708 49.198 310.088 48.8458 311.622 48.8458C312.634 48.8458 313.571 48.9878 314.435 49.2719C315.304 49.556 316.074 49.9708 316.745 50.5162C317.415 51.056 317.96 51.7179 318.381 52.502C318.807 53.2861 319.08 54.1838 319.199 55.1952Z" fill="#D0FF52"/>
<path d="M263.282 36.8555C264.009 37.2525 264.92 36.9848 265.317 36.2577C265.714 35.5306 265.446 34.6193 264.719 34.2223L264 35.5389L263.282 36.8555ZM0.00349401 63.3712C-0.0522299 64.1978 0.572619 64.913 1.39918 64.9687L14.8686 65.877C15.6951 65.9328 16.4104 65.3079 16.4661 64.4813C16.5218 63.6548 15.897 62.9396 15.0704 62.8838L3.09762 62.0765L3.90501 50.1036C3.96073 49.2771 3.33585 48.5619 2.50932 48.5061C1.68276 48.4504 0.967519 49.0753 0.911795 49.9018L0.00349401 63.3712ZM264 35.5389L264.719 34.2223C171.621 -16.6039 67.5124 3.80854 0.513207 62.3425L1.5001 63.4721L2.48699 64.6018C68.621 6.82361 171.379 -13.3183 263.282 36.8555L264 35.5389Z" fill="#D0FF52"/>
</svg>
