<svg width="338" height="75" viewBox="0 0 338 75" fill="none" xmlns="http://www.w3.org/2000/svg">
<circle cx="224" cy="57.039" r="12.5" fill="#D0FF52"/>
<path d="M258.509 49.0845V66.539H254.818V52.5873H254.716L250.719 55.093V51.8203L255.04 49.0845H258.509ZM268.314 66.539V49.0845H272.004V56.2862H279.496V49.0845H283.178V66.539H279.496V59.3288H272.004V66.539H268.314ZM302.26 57.8117C302.26 59.7151 301.899 61.3345 301.178 62.6697C300.462 64.0049 299.485 65.0248 298.246 65.7293C297.013 66.4282 295.627 66.7776 294.087 66.7776C292.536 66.7776 291.144 66.4254 289.911 65.7208C288.678 65.0163 287.703 63.9964 286.987 62.6612C286.272 61.3259 285.914 59.7095 285.914 57.8117C285.914 55.9083 286.272 54.289 286.987 52.9538C287.703 51.6185 288.678 50.6015 289.911 49.9026C291.144 49.1981 292.536 48.8458 294.087 48.8458C295.627 48.8458 297.013 49.1981 298.246 49.9026C299.485 50.6015 300.462 51.6185 301.178 52.9538C301.899 54.289 302.26 55.9083 302.26 57.8117ZM298.519 57.8117C298.519 56.5788 298.334 55.539 297.965 54.6924C297.601 53.8458 297.087 53.2038 296.422 52.7663C295.757 52.3288 294.979 52.11 294.087 52.11C293.195 52.11 292.416 52.3288 291.752 52.7663C291.087 53.2038 290.57 53.8458 290.2 54.6924C289.837 55.539 289.655 56.5788 289.655 57.8117C289.655 59.0447 289.837 60.0845 290.2 60.931C290.57 61.7776 291.087 62.4197 291.752 62.8572C292.416 63.2947 293.195 63.5134 294.087 63.5134C294.979 63.5134 295.757 63.2947 296.422 62.8572C297.087 62.4197 297.601 61.7776 297.965 60.931C298.334 60.0845 298.519 59.0447 298.519 57.8117ZM315.775 49.0845H319.465V60.4197C319.465 61.6924 319.161 62.806 318.553 63.7606C317.951 64.7151 317.107 65.4595 316.022 65.9935C314.937 66.522 313.673 66.7862 312.23 66.7862C310.781 66.7862 309.514 66.522 308.428 65.9935C307.343 65.4595 306.5 64.7151 305.897 63.7606C305.295 62.806 304.994 61.6924 304.994 60.4197V49.0845H308.684V60.1043C308.684 60.7691 308.829 61.36 309.119 61.8771C309.414 62.3941 309.829 62.8004 310.363 63.0958C310.897 63.3913 311.519 63.539 312.23 63.539C312.946 63.539 313.568 63.3913 314.096 63.0958C314.63 62.8004 315.042 62.3941 315.332 61.8771C315.627 61.36 315.775 60.7691 315.775 60.1043V49.0845ZM322.502 66.539V49.0845H329.388C330.706 49.0845 331.831 49.3203 332.763 49.7918C333.7 50.2578 334.414 50.9197 334.902 51.7776C335.397 52.6299 335.644 53.6328 335.644 54.7862C335.644 55.9453 335.394 56.9424 334.894 57.7776C334.394 58.6072 333.669 59.2435 332.72 59.6867C331.777 60.1299 330.635 60.3515 329.294 60.3515H324.683V57.3856H328.698C329.402 57.3856 329.987 57.289 330.453 57.0958C330.919 56.9026 331.266 56.6129 331.493 56.2265C331.726 55.8401 331.843 55.36 331.843 54.7862C331.843 54.2066 331.726 53.718 331.493 53.3203C331.266 52.9225 330.916 52.6214 330.445 52.4168C329.979 52.2066 329.391 52.1015 328.681 52.1015H326.192V66.539H322.502ZM331.928 58.5958L336.266 66.539H332.192L327.948 58.5958H331.928Z" fill="#D0FF52"/>
<path d="M263.281 36.8555C264.009 37.2525 264.92 36.9849 265.317 36.2578C265.714 35.5306 265.446 34.6194 264.719 34.2224L264 35.539L263.281 36.8555ZM0.00346349 63.3713C-0.0522604 64.1978 0.572589 64.9131 1.39915 64.9688L14.8685 65.8771C15.6951 65.9328 16.4103 65.308 16.4661 64.4814C16.5218 63.6549 15.8969 62.9396 15.0704 62.8839L3.09759 62.0765L3.90497 50.1037C3.9607 49.2772 3.33582 48.5619 2.50929 48.5062C1.68273 48.4504 0.967488 49.0753 0.911764 49.9019L0.00346349 63.3713ZM264 35.539L264.719 34.2224C171.621 -16.6038 67.5123 3.8086 0.513177 62.3426L1.50007 63.4722L2.48696 64.6018C68.621 6.82367 171.379 -13.3182 263.281 36.8555L264 35.539Z" fill="#D0FF52"/>
</svg>
